<svg width="323" height="218" viewBox="0 0 323 218" fill="none" xmlns="http://www.w3.org/2000/svg">
<path d="M138.465 188.505H150.487V105.953H138.465V188.505Z" fill="#E6E6E6"/>
<path d="M142.697 188.505H138.464V172.821H147.134L142.697 188.505Z" fill="#F0F0F0"/>
<path d="M265.597 188.505H277.619V105.953H265.597V188.505Z" fill="#E6E6E6"/>
<path d="M138.464 184.223L269.29 184.223V105.953L138.464 105.953V184.223Z" fill="#F0F0F0"/>
<path d="M265.063 188.505H269.295V172.821H260.621L265.063 188.505Z" fill="#F0F0F0"/>
<path d="M226.159 112.433V177.181H264.94V112.433H226.159Z" fill="#E6E6E6"/>
<path d="M241.714 114.711H249.386C252.634 114.744 255.776 113.563 258.198 111.399H232.904C235.325 113.562 238.467 114.743 241.714 114.711Z" fill="#F0F0F0"/>
<path d="M184.487 112.433V177.181H223.268V112.433H184.487Z" fill="#E6E6E6"/>
<path d="M199.649 114.711H207.322C210.569 114.743 213.711 113.562 216.132 111.399H190.838C193.26 113.563 196.402 114.744 199.649 114.711Z" fill="#F0F0F0"/>
<path d="M142.814 112.433V177.181H181.596V112.433H142.814Z" fill="#E6E6E6"/>
<path d="M157.977 114.711H165.65C168.897 114.744 172.039 113.563 174.461 111.399H149.166C151.588 113.563 154.73 114.744 157.977 114.711Z" fill="#F0F0F0"/>
<path d="M45.1789 188.505H127.208L127.208 4.11024H45.1789L45.1789 188.505Z" fill="#F0F0F0"/>
<path d="M45.1789 188.505H125.477L125.477 4.11024H45.1789L45.1789 188.505Z" fill="#F5F5F5"/>
<path d="M120.584 184.321L120.584 8.29434L50.0717 8.29434L50.0717 184.321H120.584Z" fill="#F0F0F0"/>
<path d="M113.655 41.0317C113.655 38.5072 113.157 36.0075 112.191 33.6752C111.225 31.3429 109.809 29.2237 108.024 27.4386C106.239 25.6536 104.12 24.2376 101.788 23.2715C99.4554 22.3055 96.9557 21.8082 94.4312 21.8082H76.2252C71.1268 21.8082 66.2372 23.8336 62.6321 27.4386C59.027 31.0437 57.0017 35.9333 57.0017 41.0317H113.655Z" fill="#FAFAFA"/>
<path d="M113.655 173.38V131.327H57.0019V173.38H113.655Z" fill="#F5F5F5"/>
<path d="M113.655 52.8885H88.6658V125.902H113.655V52.8885Z" fill="#F5F5F5"/>
<path d="M81.9907 52.8885H57.0017V125.902H81.9907V52.8885Z" fill="#F5F5F5"/>
<path d="M66.0647 89.0662H55.8297C55.4088 89.0651 55.0055 88.8975 54.7079 88.5999C54.4104 88.3023 54.2427 87.899 54.2417 87.4782C54.2431 87.0575 54.4108 86.6544 54.7083 86.3569C55.0058 86.0594 55.4089 85.8916 55.8297 85.8903H66.0647C66.4854 85.8916 66.8885 86.0594 67.186 86.3569C67.4835 86.6544 67.6513 87.0575 67.6526 87.4782C67.6516 87.899 67.484 88.3023 67.1864 88.5999C66.8888 88.8975 66.4855 89.0651 66.0647 89.0662Z" fill="#E0E0E0"/>
<path d="M51.3418 184.321L51.3418 8.29434H50.073L50.073 184.321H51.3418Z" fill="#F0F0F0"/>
<path d="M179.093 85.7144L266.084 85.7144V4.11022L179.093 4.11022V85.7144Z" fill="#E6E6E6"/>
<path d="M176.901 85.7144L263.891 85.7144V4.11022L176.901 4.11022V85.7144Z" fill="#F5F5F5"/>
<path d="M171.822 90.4379L266.084 90.4379V85.7145L171.822 85.7145V90.4379Z" fill="#E6E6E6"/>
<path d="M169.353 90.4379L258.76 90.4379V85.7145L169.353 85.7145V90.4379Z" fill="#F5F5F5"/>
<path d="M259.955 81.4703V8.35556L180.836 8.35556V81.4703H259.955Z" fill="white"/>
<path d="M222.588 81.4703V8.35556H218.202V81.4703H222.588Z" fill="#F5F5F5"/>
<path d="M182.494 81.4703V8.35556H180.836V81.4703H182.494Z" fill="#E6E6E6"/>
<path d="M224.246 81.4703V8.35556H222.588V81.4703H224.246Z" fill="#E6E6E6"/>
<path d="M190.787 87.8782C189.187 71.3017 188.073 44.403 188.938 35.4068C188.953 35.2522 189.001 35.1025 189.078 34.9678C189.156 34.833 189.261 34.7163 189.387 34.6252C189.554 34.5028 189.752 34.4298 189.959 34.4146C190.166 34.3995 190.372 34.4427 190.556 34.5394C190.739 34.6361 190.892 34.7823 190.996 34.9615C191.1 35.1407 191.152 35.3455 191.145 35.5527C190.993 40.0104 190.817 51.1521 191.767 70.3729C192.239 79.941 192.921 86.4934 192.453 87.8755L190.787 87.8782Z" fill="#E6E6E6"/>
<path d="M184.823 49.6723C180.264 44.614 170.964 41.0174 161.483 41.0356C157.762 41.0434 172.808 46.9197 179.069 53.4109C184.074 58.8013 188.193 64.95 191.274 71.6287C190.065 61.7219 189.379 54.7279 184.823 49.6723Z" fill="#E6E6E6"/>
<path d="M193.853 51.212C197.631 45.944 206.368 41.8927 215.816 41.4342C219.525 41.2544 205.413 47.8655 200.147 54.6419C195.945 60.3057 192.752 66.6514 190.706 73.4003C190.43 63.4831 190.071 56.4813 193.853 51.212Z" fill="#E6E6E6"/>
<path d="M184.62 31.1978C180.763 26.9147 172.884 23.869 164.856 23.8847C161.705 23.8847 174.445 28.8687 179.743 34.3594C183.98 38.9237 187.469 44.1302 190.078 49.7856C189.059 41.4042 188.475 35.481 184.62 31.1978Z" fill="#E6E6E6"/>
<path d="M192.265 37.5327C195.469 33.0711 202.864 29.6412 210.864 29.253C214.004 29.1006 202.055 34.6981 197.595 40.4364C194.036 45.2348 191.331 50.6111 189.6 56.3289C189.368 47.9241 189.062 41.9918 192.265 37.5327Z" fill="#E6E6E6"/>
<path d="M191.43 105.953C189.027 105.953 186.714 105.033 184.966 103.383C183.218 101.733 182.167 99.4762 182.029 97.0763L181.198 82.6649H201.663L200.832 97.0763C200.694 99.4762 199.643 101.733 197.895 103.383C196.147 105.033 193.834 105.953 191.43 105.953Z" fill="#E6E6E6"/>
<path d="M202.988 85.941H179.877L179.215 79.9488H203.655L202.988 85.941Z" fill="#E6E6E6"/>
<path d="M161.5 218C230.812 218 287 214.642 287 210.5C287 206.358 230.812 203 161.5 203C92.1883 203 36 206.358 36 210.5C36 214.642 92.1883 218 161.5 218Z" fill="#070F31"/>
<path d="M163.925 203.367L158.535 203.974L156.547 191.75L161.937 191.143L163.925 203.367Z" fill="#FFC3BD"/>
<path d="M188.058 204.545H182.675L181.335 192.08H186.718L188.058 204.545Z" fill="#FFC3BD"/>
<path d="M182.232 203.918H188.794C188.901 203.918 189.004 203.955 189.088 204.021C189.171 204.088 189.229 204.181 189.252 204.286L190.315 209.07C190.34 209.187 190.339 209.307 190.31 209.423C190.282 209.539 190.228 209.647 190.152 209.739C190.077 209.831 189.981 209.905 189.873 209.955C189.765 210.005 189.647 210.03 189.527 210.028C187.416 209.991 185.88 209.867 183.217 209.867C181.581 209.867 176.647 210.037 174.388 210.037C172.173 210.037 171.833 207.803 172.758 207.601C176.906 206.689 180.031 205.442 181.356 204.249C181.597 204.034 181.909 203.916 182.232 203.918Z" fill="#263238"/>
<path d="M158.446 203.051L164.287 202.389C164.393 202.376 164.5 202.401 164.591 202.458C164.681 202.514 164.749 202.6 164.784 202.702L166.38 207.335C166.42 207.447 166.434 207.567 166.421 207.685C166.408 207.804 166.368 207.918 166.304 208.018C166.24 208.119 166.154 208.203 166.053 208.266C165.951 208.328 165.837 208.366 165.718 208.377C163.608 208.58 160.549 208.802 157.902 209.103C154.806 209.455 154.29 210.283 150.637 210.198C148.423 210.146 147.868 207.899 148.797 207.723C153.028 206.901 153.846 206.262 157.208 203.622C157.559 203.32 157.988 203.122 158.446 203.051Z" fill="#263238"/>
<path d="M163.201 46.3803C161.393 47.8732 159.613 49.1706 157.772 50.4994C155.932 51.8281 154.052 53.0617 152.118 54.2589C150.183 55.456 148.198 56.6037 146.116 57.6458C143.988 58.7483 141.773 59.6728 139.492 60.41C138.889 60.6028 138.302 60.7618 137.624 60.9311C136.962 61.0747 136.292 61.1821 135.618 61.2529C134.405 61.3831 133.264 61.4418 132.127 61.4939C129.86 61.5981 127.637 61.5955 125.416 61.5798C120.973 61.5264 116.569 61.3128 112.145 60.922L112.079 56.8837C116.423 56.3249 120.787 55.8416 125.106 55.3557C127.264 55.1212 129.417 54.8581 131.521 54.5832C132.563 54.4412 133.605 54.2745 134.567 54.096C134.98 54.0231 135.389 53.927 135.791 53.8081C136.17 53.6779 136.635 53.5294 137.065 53.3561C138.911 52.6066 140.703 51.73 142.428 50.7325C144.214 49.7073 146.002 48.6066 147.758 47.4368C149.514 46.267 151.262 45.0555 152.994 43.8193C154.727 42.5831 156.458 41.2739 158.084 40.0416L163.201 46.3803Z" fill="#FFC3BD"/>
<path d="M168.462 41.7793C167.688 46.8675 156.975 54.651 156.975 54.651L149.289 45.1115C152.656 41.5184 156.226 38.1211 159.982 34.9364C163.44 32.1096 169.303 36.243 168.462 41.7793Z" fill="#FACC15"/>
<path d="M113.561 57.3097L110.505 55.1342L110.17 62.0071C110.632 62.0083 111.087 61.8964 111.496 61.6811C111.905 61.4658 112.255 61.1538 112.515 60.7722L113.561 57.3097Z" fill="#FFC3BD"/>
<path d="M107.745 53.1334L107.119 59.8695L110.173 62.0072L110.508 55.1343L107.745 53.1334Z" fill="#FFC3BD"/>
<path opacity="0.2" d="M156.549 191.754L157.573 198.055L162.965 197.448L161.941 191.147L156.549 191.754Z" fill="black"/>
<path opacity="0.2" d="M186.72 192.081H181.335L182.028 198.506H187.413L186.72 192.081Z" fill="black"/>
<path d="M186.797 35.0992C187.198 35.1891 187.577 35.3583 187.911 35.5968C188.246 35.8353 188.529 36.1383 188.745 36.488C188.961 36.8377 189.104 37.227 189.167 37.633C189.23 38.0391 189.211 38.4536 189.112 38.8522C187.944 43.7001 187.063 48.6127 186.475 53.5645C185.966 57.733 185.661 61.7153 185.471 65.3249C185.024 73.7858 185.21 80.2353 184.957 82.4211C180.749 82.1293 164.887 81.026 156.239 80.4215C153.32 57.5676 156.74 42.9829 158.662 37.0571C158.956 36.1337 159.506 35.3129 160.249 34.6903C160.992 34.0676 161.896 33.6686 162.856 33.5399C163.958 33.3953 165.277 33.2559 166.668 33.1739C167.155 33.1426 167.649 33.1257 168.152 33.1152C172.235 33.1636 176.311 33.4472 180.362 33.9646C181.13 34.0558 181.907 34.1691 182.662 34.2902C184.172 34.543 185.607 34.8335 186.797 35.0992Z" fill="#FACC15"/>
<path d="M180.113 20.1395C179.071 24.0136 177.797 31.1574 180.363 33.9712C173.706 38.4484 169.457 44.752 168.231 43.3829C167.589 42.6665 167.31 34.375 168.154 33.1192C172.608 32.3793 172.722 29.1213 172.172 26.0158L180.113 20.1395Z" fill="#FFC3BD"/>
<path d="M179.847 32.3649C179.847 32.3649 169 37.1652 167.562 47.8992C170.55 44.4393 177.151 40.6746 177.151 40.6746L174.239 39.8383C176.091 39.1356 178.008 38.6198 179.962 38.2986C179.639 36.8161 181.361 33.8591 181.361 33.8591L179.847 32.3649Z" fill="#FACC15"/>
<path d="M170.06 32.1917C170.06 32.1917 171.506 38.322 167.563 47.8992C166.786 44.5565 165.72 41.2875 164.377 38.1292L167.033 38.8522C167.033 38.8522 166.903 37.616 164.752 35.972C165.648 34.6702 166.766 33.5358 168.054 32.6202L170.06 32.1917Z" fill="#FACC15"/>
<path opacity="0.2" d="M176.876 22.5376L172.176 26.0131C172.315 26.7363 172.391 27.4704 172.401 28.2068C174.095 28.0765 176.518 26.4052 176.819 24.6662C176.966 23.9659 176.986 23.2447 176.876 22.5376Z" fill="black"/>
<path d="M166.329 8.92091C163.705 9.03424 162.256 13.5597 164.92 17.2866C167.584 21.0136 169.866 8.76849 166.329 8.92091Z" fill="#263238"/>
<path d="M179.274 12.9031C179.585 18.2362 180.039 21.3405 177.691 24.3796C174.161 28.9507 167.335 27.3119 165.437 22.1794C163.729 17.5602 163.507 9.6152 168.433 6.88612C169.517 6.27855 170.738 5.95823 171.981 5.95558C173.223 5.95294 174.446 6.26807 175.532 6.87102C176.618 7.47398 177.532 8.34472 178.187 9.4005C178.842 10.4563 179.216 11.662 179.274 12.9031Z" fill="#FFC3BD"/>
<path d="M180.057 17.0013C178.631 16.1653 177.386 15.054 176.393 13.732C175.401 12.4101 174.682 10.9039 174.277 9.30125C172.714 9.67121 164.923 13.2561 162.527 9.30125C160.131 5.34636 163.146 3.02631 167.628 5.461C165.646 1.96204 167.448 0.250327 173.678 0.0992182C179.907 -0.0518911 179.07 3.55911 179.07 3.55911C179.07 3.55911 183.785 1.5061 185.453 5.1223C187.384 9.2778 183.82 16.3734 180.057 17.0013Z" fill="#263238"/>
<path d="M178.004 2.60427C178.061 2.60427 180.363 3.1579 183.015 0.488739C182.54 2.7658 178.421 4.2821 178.421 4.2821L178.004 2.60427Z" fill="#263238"/>
<path d="M181.099 10.4059C178.615 9.54746 175.607 13.2275 176.718 17.6709C177.829 22.1143 184.446 11.5627 181.099 10.4059Z" fill="#263238"/>
<path d="M182.505 17.3387C182.277 18.6631 181.534 19.8435 180.439 20.6214C178.978 21.6401 177.663 20.4755 177.573 18.7899C177.497 17.2736 178.164 14.9157 179.867 14.5679C180.24 14.4981 180.625 14.5228 180.987 14.6397C181.349 14.7566 181.676 14.962 181.938 15.2373C182.2 15.5126 182.389 15.849 182.488 16.216C182.587 16.583 182.593 16.9689 182.505 17.3387Z" fill="#FFC3BD"/>
<path d="M164.334 141.066C165.628 125.322 175.116 81.7386 175.116 81.7386L156.235 80.4216C156.235 80.4216 148.955 123.684 148.397 140.103C147.816 157.175 154.683 195.116 154.683 195.116L163.737 194.086C163.737 194.086 163.035 156.875 164.334 141.066Z" fill="#FACC15"/>
<path opacity="0.5" d="M164.334 141.066C165.628 125.322 175.116 81.7386 175.116 81.7386L156.235 80.4216C156.235 80.4216 148.955 123.684 148.397 140.103C147.816 157.175 154.683 195.116 154.683 195.116L163.737 194.086C163.737 194.086 163.035 156.875 164.334 141.066Z" fill="white"/>
<path opacity="0.2" d="M168.003 96.4978C164.197 101.365 164.129 118.457 165.601 131.085C167.004 121.975 169.215 110.406 171.152 100.763L168.003 96.4978Z" fill="black"/>
<path d="M166.423 81.1316C166.423 81.1316 168.461 127.213 170.734 142.819C173.222 159.909 179.541 197.26 179.541 197.26H189.4C189.4 197.26 187.778 162.081 186.477 145.29C184.995 126.166 184.955 82.4238 184.955 82.4238L166.423 81.1316Z" fill="#FACC15"/>
<path opacity="0.5" d="M166.423 81.1316C166.423 81.1316 168.461 127.213 170.734 142.819C173.222 159.909 179.541 197.26 179.541 197.26H189.4C189.4 197.26 187.778 162.081 186.477 145.29C184.995 126.166 184.955 82.4238 184.955 82.4238L166.423 81.1316Z" fill="white"/>
<path d="M178.356 197.47H189.964V194.002L176.988 193.777L178.356 197.47Z" fill="#FACC15"/>
<path d="M154.288 196.136L165.079 194.913L164.688 191.426L152.603 192.61L154.288 196.136Z" fill="#FACC15"/>
<path d="M171.422 15.3482C171.474 15.7794 171.291 16.1558 171.005 16.1897C170.718 16.2236 170.452 15.9018 170.402 15.4706C170.351 15.0395 170.532 14.663 170.818 14.6291C171.105 14.5953 171.371 14.917 171.422 15.3482Z" fill="#263238"/>
<path d="M166.551 15.9331C166.603 16.3643 166.421 16.7407 166.134 16.7746C165.847 16.8085 165.582 16.4867 165.53 16.0555C165.478 15.6244 165.66 15.2479 165.946 15.214C166.233 15.1802 166.499 15.5071 166.551 15.9331Z" fill="#263238"/>
<path d="M168.125 15.9618C167.769 17.341 167.225 18.6647 166.509 19.8958C166.829 20.0709 167.183 20.1741 167.546 20.1982C167.91 20.2223 168.275 20.1667 168.614 20.0352L168.125 15.9618Z" fill="#ED847E"/>
<path d="M172.746 13.5909C172.701 13.6046 172.653 13.6056 172.607 13.5939C172.561 13.5822 172.519 13.5582 172.486 13.5245C172.27 13.2876 172.002 13.1051 171.702 12.9919C171.403 12.8786 171.081 12.838 170.762 12.8732C170.696 12.8844 170.628 12.8695 170.572 12.8316C170.517 12.7937 170.478 12.7358 170.464 12.67C170.457 12.637 170.457 12.603 170.464 12.57C170.47 12.537 170.484 12.5056 170.503 12.4778C170.522 12.45 170.546 12.4262 170.574 12.408C170.603 12.3898 170.634 12.3774 170.667 12.3716C171.069 12.3196 171.478 12.3648 171.858 12.5036C172.239 12.6423 172.58 12.8705 172.855 13.1689C172.901 13.2174 172.927 13.282 172.927 13.3493C172.927 13.4165 172.901 13.4812 172.855 13.5297C172.824 13.5588 172.787 13.5799 172.746 13.5909Z" fill="#263238"/>
<path d="M170.874 21.7547C171.489 21.6254 172.064 21.35 172.55 20.9519C173.036 20.5538 173.418 20.0445 173.666 19.4672C173.678 19.4327 173.676 19.3947 173.66 19.3618C173.644 19.3288 173.616 19.3035 173.581 19.2914C173.547 19.2793 173.509 19.2814 173.476 19.2973C173.443 19.3132 173.418 19.3415 173.406 19.376C173.168 19.9071 172.81 20.375 172.359 20.742C171.907 21.109 171.376 21.3649 170.808 21.489C170.791 21.493 170.774 21.5004 170.759 21.5108C170.745 21.5213 170.732 21.5345 170.723 21.5497C170.713 21.565 170.707 21.5819 170.704 21.5997C170.701 21.6174 170.701 21.6356 170.705 21.6531C170.709 21.6706 170.717 21.6872 170.727 21.7019C170.737 21.7165 170.751 21.729 170.766 21.7386C170.781 21.7481 170.798 21.7546 170.816 21.7576C170.834 21.7606 170.852 21.76 170.869 21.756L170.874 21.7547Z" fill="#263238"/>
<path d="M164.26 14.508C164.209 14.525 164.153 14.525 164.102 14.508C164.039 14.4847 163.987 14.4379 163.958 14.3775C163.929 14.317 163.924 14.2476 163.944 14.1836C164.067 13.7972 164.28 13.446 164.567 13.1598C164.854 12.8736 165.206 12.6608 165.592 12.5396C165.658 12.5248 165.726 12.5358 165.784 12.5703C165.841 12.6047 165.883 12.66 165.901 12.7246C165.916 12.7898 165.905 12.8582 165.871 12.9157C165.837 12.9732 165.782 13.0153 165.717 13.0334C165.413 13.1347 165.138 13.3069 164.913 13.5356C164.689 13.7644 164.522 14.0432 164.426 14.349C164.413 14.3865 164.391 14.4204 164.362 14.4479C164.333 14.4755 164.298 14.496 164.26 14.508Z" fill="#263238"/>
<path d="M180.46 204.859C180.091 204.888 179.724 204.791 179.418 204.584C179.322 204.502 179.248 204.397 179.203 204.28C179.158 204.162 179.142 204.035 179.157 203.91C179.157 203.836 179.177 203.763 179.216 203.699C179.254 203.636 179.31 203.584 179.376 203.55C179.974 203.242 181.708 204.31 181.903 204.433C181.924 204.446 181.941 204.466 181.952 204.489C181.962 204.512 181.966 204.538 181.962 204.563C181.957 204.588 181.946 204.611 181.929 204.629C181.912 204.648 181.89 204.661 181.865 204.667C181.405 204.783 180.934 204.847 180.46 204.859ZM179.66 203.745C179.603 203.742 179.546 203.753 179.494 203.776C179.468 203.791 179.446 203.813 179.432 203.839C179.418 203.866 179.411 203.896 179.414 203.926C179.402 204.011 179.412 204.098 179.442 204.179C179.472 204.26 179.522 204.332 179.587 204.388C180.188 204.663 180.872 204.697 181.498 204.485C180.937 204.121 180.31 203.87 179.653 203.745H179.66Z" fill="#FACC15"/>
<path d="M181.831 204.67C181.81 204.67 181.789 204.664 181.77 204.654C181.214 204.352 180.137 203.172 180.25 202.57C180.269 202.476 180.319 202.391 180.393 202.33C180.467 202.269 180.559 202.236 180.655 202.235C180.752 202.223 180.85 202.232 180.944 202.26C181.037 202.288 181.124 202.336 181.198 202.399C181.824 202.911 181.953 204.464 181.957 204.529C181.958 204.552 181.954 204.575 181.944 204.595C181.934 204.616 181.918 204.634 181.899 204.646C181.879 204.66 181.856 204.669 181.831 204.67ZM180.745 202.488H180.686C180.521 202.509 180.507 202.584 180.5 202.618C180.432 202.972 181.119 203.864 181.673 204.284C181.636 203.669 181.414 203.078 181.037 202.591C180.955 202.523 180.851 202.487 180.745 202.488Z" fill="#FACC15"/>
<path d="M158.008 203.847L157.987 203.856C157.144 204.125 155.636 204.507 154.991 204.056C154.896 203.99 154.818 203.903 154.765 203.8C154.711 203.697 154.683 203.583 154.684 203.467C154.679 203.398 154.692 203.328 154.721 203.265C154.751 203.201 154.797 203.147 154.854 203.107C155.46 202.681 157.736 203.518 157.994 203.616C158.016 203.626 158.035 203.641 158.049 203.661C158.063 203.68 158.071 203.704 158.072 203.728C158.074 203.752 158.068 203.775 158.057 203.797C158.046 203.818 158.029 203.836 158.008 203.848V203.847ZM155.034 203.294L155.004 203.312C154.981 203.328 154.962 203.35 154.951 203.375C154.939 203.401 154.935 203.429 154.939 203.457C154.937 203.533 154.955 203.609 154.989 203.677C155.024 203.745 155.074 203.804 155.137 203.848C155.929 204.095 156.784 204.049 157.544 203.718C156.756 203.368 155.892 203.222 155.033 203.294H155.034Z" fill="#FACC15"/>
<path d="M158.008 203.847C157.977 203.862 157.942 203.865 157.909 203.854C157.232 203.638 155.825 202.626 155.851 202.011C155.857 201.866 155.94 201.678 156.283 201.603C156.408 201.576 156.536 201.574 156.661 201.597C156.786 201.621 156.905 201.67 157.01 201.741C157.563 202.269 157.934 202.957 158.073 203.708C158.078 203.73 158.076 203.753 158.07 203.774C158.063 203.795 158.051 203.814 158.034 203.83C158.026 203.836 158.017 203.842 158.008 203.847ZM156.196 201.906C156.109 201.952 156.106 202.007 156.105 202.028C156.087 202.398 157.059 203.208 157.763 203.529C157.633 202.928 157.322 202.383 156.871 201.966C156.794 201.912 156.707 201.876 156.615 201.858C156.523 201.84 156.428 201.842 156.337 201.863C156.288 201.87 156.241 201.885 156.196 201.906Z" fill="#FACC15"/>
<path d="M191.338 42.8632C191.201 44.9657 190.954 46.9236 190.697 48.9453C190.441 50.9671 190.095 52.9484 189.716 54.948C188.966 59.0321 187.859 63.0424 186.406 66.9325L185.767 68.4397L185.605 68.8162L185.565 68.91L185.498 69.0533L185.311 69.4245C185.063 69.8757 184.765 70.2977 184.424 70.6829C183.862 71.3149 183.205 71.8555 182.477 72.2852C181.888 72.6361 181.269 72.9364 180.629 73.1827C178.495 73.9524 176.264 74.4181 174.001 74.5662C169.892 74.8731 165.761 74.7189 161.686 74.1063L161.833 70.0681L164.68 69.7463C165.635 69.633 166.585 69.4858 167.529 69.3555C169.414 69.078 171.28 68.768 173.058 68.3551C174.703 68.0202 176.301 67.4902 177.82 66.7762C178.23 66.6041 178.589 66.3301 178.862 65.9803C178.879 65.8878 178.674 66.2929 178.916 65.6455L179.342 64.4002C180.385 60.83 181.183 57.1927 181.731 53.5138C182.037 51.6406 182.299 49.7504 182.552 47.855C182.804 45.9596 183.013 44.0252 183.212 42.2079L191.338 42.8632Z" fill="#FFC3BD"/>
<path d="M191.807 38.9604C194.442 43.3804 192.198 57.272 192.198 57.272L178.39 54.7201C178.39 54.7201 177.642 46.7738 180.271 40.6591C183.125 34.0038 188.614 33.6052 191.807 38.9604Z" fill="#FACC15"/>
<path d="M157.966 82.5619L150.639 48.4789C150.287 47.0235 149.472 45.7218 148.316 44.7702C147.16 43.8186 145.726 43.2686 144.23 43.2031H116.153C117.649 43.2683 119.084 43.8182 120.24 44.7698C121.396 45.7215 122.212 47.0233 122.564 48.4789L129.891 82.5619C130.243 84.0173 131.058 85.319 132.214 86.2706C133.37 87.2222 134.804 87.7722 136.3 87.8377H164.375C162.88 87.7722 161.445 87.2222 160.289 86.2706C159.133 85.319 158.318 84.0173 157.966 82.5619Z" fill="#263238"/>
<path opacity="0.7" d="M157.966 82.5619L150.639 48.4789C150.287 47.0235 149.472 45.7218 148.316 44.7702C147.16 43.8186 145.726 43.2686 144.23 43.2031H116.153C117.649 43.2683 119.084 43.8182 120.24 44.7698C121.396 45.7215 122.212 47.0233 122.564 48.4789L129.891 82.5619C130.243 84.0173 131.058 85.319 132.214 86.2706C133.37 87.2222 134.804 87.7722 136.3 87.8377H164.375C162.88 87.7722 161.445 87.2222 160.289 86.2706C159.133 85.319 158.318 84.0173 157.966 82.5619Z" fill="#FACC15"/>
<path d="M116.153 43.2031H144.228C142.791 43.23 141.413 43.781 140.353 44.7526C139.293 45.7241 138.625 47.0492 138.473 48.4789L131.19 127.681C131.038 129.111 130.37 130.436 129.31 131.407C128.25 132.379 126.872 132.93 125.435 132.957H107.911C107.236 132.969 106.566 132.837 105.946 132.57C105.327 132.303 104.771 131.906 104.317 131.406C103.863 130.907 103.52 130.316 103.313 129.674C103.106 129.031 103.038 128.352 103.115 127.681L110.399 48.4789C110.551 47.0494 111.219 45.7245 112.279 44.753C113.338 43.7815 114.716 43.2304 116.153 43.2031Z" fill="#FACC15"/>
<path d="M120.639 127.68C120.562 128.351 120.63 129.03 120.837 129.672C121.044 130.315 121.386 130.906 121.84 131.405C122.295 131.905 122.85 132.301 123.47 132.569C124.09 132.836 124.76 132.968 125.435 132.956H97.3599C96.6848 132.968 96.0148 132.837 95.3948 132.569C94.7748 132.302 94.2191 131.905 93.7649 131.406C93.3107 130.906 92.9686 130.315 92.7614 129.673C92.5541 129.03 92.4867 128.351 92.5635 127.68H120.639Z" fill="#263238"/>
<path opacity="0.7" d="M120.639 127.68C120.562 128.351 120.63 129.03 120.837 129.672C121.044 130.315 121.386 130.906 121.84 131.405C122.295 131.905 122.85 132.301 123.47 132.569C124.09 132.836 124.76 132.968 125.435 132.956H97.3599C96.6848 132.968 96.0148 132.837 95.3948 132.569C94.7748 132.302 94.2191 131.905 93.7649 131.406C93.3107 130.906 92.9686 130.315 92.7614 129.673C92.5541 129.03 92.4867 128.351 92.5635 127.68H120.639Z" fill="#FACC15"/>
<g opacity="0.5">
<path opacity="0.5" d="M133.608 52.0769H114.61C114.463 52.0789 114.317 52.0497 114.183 51.9912C114.048 51.9327 113.928 51.8462 113.829 51.7375C113.731 51.6289 113.656 51.5005 113.611 51.3609C113.566 51.2213 113.551 51.0737 113.567 50.9279C113.601 50.6169 113.747 50.3288 113.978 50.1174C114.208 49.906 114.508 49.7857 114.821 49.779H133.816C133.963 49.777 134.108 49.8062 134.243 49.8647C134.377 49.9232 134.498 50.0096 134.596 50.1183C134.695 50.227 134.769 50.3554 134.814 50.4949C134.86 50.6345 134.874 50.7821 134.858 50.9279C134.824 51.2385 134.679 51.5263 134.449 51.7376C134.219 51.949 133.92 52.0695 133.608 52.0769Z" fill="white"/>
<path opacity="0.5" d="M133.042 58.2919H114.044C113.898 58.2939 113.752 58.2647 113.618 58.2062C113.483 58.1477 113.363 58.0612 113.264 57.9526C113.165 57.8439 113.091 57.7155 113.046 57.5759C113.001 57.4363 112.986 57.2887 113.002 57.1429C113.036 56.8319 113.182 56.5438 113.412 56.3324C113.643 56.121 113.943 56.0007 114.255 55.994H133.253C133.4 55.992 133.546 56.0212 133.68 56.0797C133.815 56.1382 133.935 56.2247 134.034 56.3333C134.132 56.442 134.207 56.5704 134.252 56.7099C134.297 56.8495 134.312 56.9971 134.296 57.1429C134.262 57.4541 134.116 57.7423 133.886 57.9538C133.655 58.1653 133.355 58.2855 133.042 58.2919Z" fill="white"/>
<path opacity="0.5" d="M127.82 64.5069H113.479C113.332 64.5089 113.187 64.4797 113.052 64.4212C112.918 64.3627 112.797 64.2763 112.699 64.1676C112.6 64.0589 112.526 63.9305 112.481 63.7909C112.435 63.6514 112.421 63.5038 112.437 63.358C112.471 63.0469 112.616 62.7588 112.847 62.5474C113.078 62.336 113.377 62.2157 113.69 62.209H128.031C128.178 62.207 128.323 62.2362 128.458 62.2947C128.592 62.3532 128.713 62.4397 128.811 62.5483C128.91 62.657 128.984 62.7854 129.029 62.925C129.074 63.0646 129.089 63.2122 129.073 63.358C129.039 63.669 128.894 63.9571 128.663 64.1685C128.432 64.3799 128.133 64.5002 127.82 64.5069Z" fill="white"/>
<path opacity="0.5" d="M117.778 70.7207H112.915C112.768 70.7227 112.623 70.6935 112.488 70.635C112.354 70.5765 112.233 70.49 112.134 70.3813C112.036 70.2727 111.962 70.1443 111.916 70.0047C111.871 69.8651 111.856 69.7175 111.873 69.5717C111.906 69.2608 112.052 68.9727 112.282 68.7613C112.512 68.5499 112.812 68.4295 113.124 68.4228H117.989C118.135 68.4208 118.281 68.45 118.415 68.5085C118.55 68.567 118.67 68.6534 118.769 68.7621C118.867 68.8708 118.942 68.9992 118.987 69.1387C119.032 69.2783 119.047 69.4259 119.031 69.5717C118.997 69.8827 118.851 70.1708 118.621 70.3823C118.39 70.5937 118.09 70.714 117.778 70.7207Z" fill="white"/>
<path opacity="0.5" d="M131.346 76.9357H112.343C112.196 76.9377 112.051 76.9085 111.916 76.85C111.782 76.7915 111.661 76.705 111.563 76.5964C111.464 76.4877 111.39 76.3593 111.345 76.2197C111.299 76.0801 111.285 75.9325 111.301 75.7867C111.335 75.4757 111.48 75.1876 111.711 74.9762C111.942 74.7648 112.241 74.6445 112.554 74.6378H131.552C131.699 74.6358 131.844 74.665 131.979 74.7235C132.113 74.782 132.234 74.8685 132.332 74.9771C132.431 75.0858 132.505 75.2142 132.55 75.3538C132.596 75.4934 132.61 75.6409 132.594 75.7867C132.561 76.0969 132.416 76.3843 132.186 76.5956C131.956 76.8069 131.658 76.9277 131.346 76.9357Z" fill="white"/>
<path opacity="0.5" d="M123.3 83.1507H111.784C111.637 83.1527 111.492 83.1235 111.357 83.065C111.223 83.0065 111.102 82.92 111.004 82.8113C110.905 82.7027 110.831 82.5743 110.786 82.4347C110.741 82.2951 110.726 82.1475 110.742 82.0017C110.775 81.6908 110.921 81.4027 111.151 81.1913C111.382 80.9798 111.681 80.8595 111.994 80.8528H123.509C123.656 80.8507 123.802 80.88 123.936 80.9385C124.071 80.997 124.191 81.0834 124.29 81.1921C124.388 81.3008 124.463 81.4291 124.508 81.5687C124.553 81.7083 124.568 81.8559 124.552 82.0017C124.518 82.3125 124.372 82.6004 124.142 82.8118C123.912 83.0232 123.612 83.1436 123.3 83.1507Z" fill="white"/>
<path opacity="0.5" d="M130.217 89.3644H111.219C111.072 89.3664 110.927 89.3372 110.792 89.2787C110.657 89.2202 110.537 89.1337 110.438 89.0251C110.34 88.9164 110.265 88.788 110.22 88.6484C110.175 88.5089 110.16 88.3613 110.177 88.2155C110.21 87.9044 110.356 87.6163 110.587 87.4049C110.817 87.1935 111.117 87.0732 111.43 87.0665H130.429C130.576 87.0645 130.721 87.0937 130.856 87.1522C130.99 87.2107 131.111 87.2972 131.209 87.4058C131.308 87.5145 131.382 87.6429 131.427 87.7825C131.473 87.9221 131.487 88.0697 131.471 88.2155C131.437 88.5267 131.291 88.815 131.061 89.0264C130.83 89.2379 130.53 89.358 130.217 89.3644Z" fill="white"/>
<path opacity="0.5" d="M124.995 95.5794H110.654C110.507 95.5815 110.361 95.5522 110.227 95.4937C110.092 95.4352 109.972 95.3488 109.873 95.2401C109.775 95.1315 109.7 95.0031 109.655 94.8635C109.61 94.7239 109.595 94.5763 109.611 94.4305C109.645 94.1195 109.791 93.8314 110.022 93.62C110.252 93.4085 110.552 93.2882 110.865 93.2815H125.206C125.352 93.2795 125.498 93.3087 125.632 93.3672C125.767 93.4257 125.887 93.5122 125.986 93.6209C126.084 93.7295 126.159 93.8579 126.204 93.9975C126.249 94.1371 126.264 94.2847 126.248 94.4305C126.214 94.7415 126.068 95.0296 125.838 95.241C125.607 95.4524 125.307 95.5727 124.995 95.5794Z" fill="white"/>
<path opacity="0.5" d="M114.952 101.793H110.085C109.939 101.795 109.793 101.766 109.659 101.707C109.524 101.649 109.404 101.562 109.305 101.454C109.207 101.345 109.132 101.217 109.087 101.077C109.042 100.938 109.027 100.79 109.043 100.644C109.077 100.333 109.223 100.045 109.453 99.8336C109.684 99.6222 109.984 99.5019 110.296 99.4952H115.166C115.312 99.4932 115.458 99.5224 115.592 99.5809C115.727 99.6394 115.848 99.7259 115.946 99.8345C116.045 99.9432 116.119 100.072 116.164 100.211C116.209 100.351 116.224 100.498 116.208 100.644C116.174 100.956 116.028 101.244 115.797 101.456C115.566 101.667 115.265 101.787 114.952 101.793Z" fill="white"/>
<path opacity="0.5" d="M128.521 108.009H109.523C109.376 108.012 109.231 107.982 109.096 107.924C108.961 107.865 108.841 107.779 108.742 107.67C108.644 107.561 108.569 107.433 108.524 107.294C108.479 107.154 108.464 107.006 108.481 106.861C108.514 106.55 108.66 106.261 108.891 106.05C109.121 105.839 109.421 105.718 109.734 105.712H128.732C128.878 105.71 129.024 105.739 129.158 105.797C129.293 105.856 129.414 105.942 129.512 106.051C129.611 106.16 129.685 106.288 129.73 106.428C129.775 106.567 129.79 106.715 129.774 106.861C129.74 107.172 129.594 107.46 129.364 107.671C129.133 107.882 128.833 108.003 128.521 108.009Z" fill="white"/>
<path opacity="0.5" d="M120.474 114.223H108.959C108.812 114.225 108.667 114.196 108.532 114.138C108.397 114.079 108.277 113.993 108.178 113.884C108.08 113.775 108.005 113.647 107.96 113.507C107.915 113.368 107.9 113.22 107.917 113.074C107.95 112.763 108.096 112.475 108.326 112.263C108.557 112.052 108.857 111.932 109.17 111.925H120.684C120.831 111.923 120.976 111.953 121.111 112.011C121.245 112.07 121.366 112.156 121.464 112.265C121.563 112.373 121.637 112.502 121.682 112.641C121.727 112.781 121.742 112.929 121.726 113.074C121.692 113.385 121.547 113.673 121.316 113.884C121.086 114.096 120.787 114.216 120.474 114.223Z" fill="white"/>
<path opacity="0.5" d="M127.39 120.438H108.392C108.245 120.44 108.1 120.411 107.965 120.353C107.831 120.294 107.71 120.208 107.612 120.099C107.513 119.99 107.439 119.862 107.394 119.722C107.349 119.583 107.334 119.435 107.35 119.289C107.384 118.978 107.529 118.69 107.76 118.479C107.991 118.267 108.29 118.147 108.603 118.14H127.599C127.745 118.138 127.891 118.168 128.025 118.226C128.16 118.285 128.28 118.371 128.379 118.48C128.477 118.588 128.552 118.717 128.597 118.856C128.642 118.996 128.657 119.143 128.641 119.289C128.607 119.6 128.462 119.888 128.231 120.099C128.001 120.31 127.702 120.431 127.39 120.438Z" fill="white"/>
</g>
<path d="M163.488 70.5084L159.364 66.9247L157.431 73.5214C157.431 73.5214 161.62 75.7933 163.071 73.7077L163.488 70.5084Z" fill="#FFC3BD"/>
<path d="M154.871 66.6668L153.53 72.1953L157.427 73.524L159.36 66.926L154.871 66.6668Z" fill="#FFC3BD"/>
</svg>
