<svg width="323" height="241" viewBox="0 0 323 241" fill="none" xmlns="http://www.w3.org/2000/svg">
<path d="M153.317 183H28.6843C27.7075 182.999 26.771 182.61 26.0802 181.917C25.3895 181.225 25.001 180.286 25 179.307V3.69191C25.0014 2.71295 25.39 1.77451 26.0807 1.0824C26.7714 0.390298 27.7077 0.00103606 28.6843 0H153.317C154.293 0.00138141 155.229 0.390794 155.92 1.08286C156.61 1.77493 156.999 2.71317 157 3.69191V179.304C157 180.284 156.612 181.223 155.921 181.916C155.231 182.609 154.294 182.999 153.317 183ZM28.6856 0.161881C27.7539 0.164636 26.8611 0.536884 26.2022 1.19732C25.5434 1.85775 25.172 2.7527 25.1693 3.68669V179.304C25.172 180.238 25.5434 181.133 26.2022 181.794C26.8611 182.454 27.7539 182.826 28.6856 182.829H153.318C154.25 182.826 155.143 182.454 155.802 181.794C156.46 181.133 156.832 180.238 156.835 179.304V3.69191C156.832 2.75792 156.46 1.86297 155.802 1.20254C155.143 0.542103 154.25 0.16986 153.318 0.167105L28.6856 0.161881Z" fill="#EBEBEB"/>
<path d="M292.316 183H167.683C166.706 182.999 165.77 182.609 165.08 181.917C164.389 181.224 164.001 180.286 164 179.307V3.69191C164.001 2.71307 164.389 1.77462 165.08 1.08248C165.77 0.390341 166.707 0.00103672 167.683 0H292.316C293.292 0.00103606 294.229 0.390298 294.919 1.0824C295.61 1.77451 295.999 2.71295 296 3.69191V179.304C296 180.284 295.611 181.223 294.921 181.916C294.23 182.609 293.293 182.999 292.316 183ZM167.683 0.161881C166.751 0.164636 165.858 0.536884 165.2 1.19732C164.541 1.85775 164.169 2.7527 164.167 3.68669V179.304C164.169 180.238 164.541 181.133 165.2 181.794C165.858 182.454 166.751 182.826 167.683 182.829H292.316C293.249 182.828 294.143 182.456 294.803 181.796C295.464 181.135 295.836 180.239 295.839 179.304V3.69191C295.836 2.75679 295.464 1.86086 294.803 1.20024C294.143 0.539622 293.249 0.168137 292.316 0.167105L167.683 0.161881Z" fill="#EBEBEB"/>
<path d="M138.465 211.505H150.487V128.953H138.465V211.505Z" fill="#E6E6E6"/>
<path d="M142.697 211.505H138.464V195.821H147.134L142.697 211.505Z" fill="#F0F0F0"/>
<path d="M265.597 211.505H277.619V128.953H265.597V211.505Z" fill="#E6E6E6"/>
<path d="M138.464 207.223L269.29 207.223V128.953H138.464V207.223Z" fill="#F0F0F0"/>
<path d="M265.063 211.505H269.295V195.821H260.621L265.063 211.505Z" fill="#F0F0F0"/>
<path d="M226.159 135.433V200.181H264.94V135.433H226.159Z" fill="#E6E6E6"/>
<path d="M241.714 137.711H249.386C252.634 137.744 255.776 136.563 258.198 134.399H232.904C235.325 136.562 238.467 137.743 241.714 137.711Z" fill="#F0F0F0"/>
<path d="M184.487 135.433V200.181H223.268V135.433H184.487Z" fill="#E6E6E6"/>
<path d="M199.649 137.711H207.322C210.569 137.743 213.711 136.562 216.132 134.399H190.838C193.26 136.563 196.402 137.744 199.649 137.711Z" fill="#F0F0F0"/>
<path d="M142.814 135.433V200.181H181.596V135.433H142.814Z" fill="#E6E6E6"/>
<path d="M157.977 137.711H165.65C168.897 137.744 172.039 136.563 174.461 134.399H149.166C151.588 136.563 154.73 137.744 157.977 137.711Z" fill="#F0F0F0"/>
<path d="M45.1789 211.505H127.208L127.208 27.1102H45.1789L45.1789 211.505Z" fill="#F0F0F0"/>
<path d="M45.1789 211.505H125.477L125.477 27.1102H45.1789L45.1789 211.505Z" fill="#F5F5F5"/>
<path d="M120.584 207.321L120.584 31.2944L50.0717 31.2944L50.0717 207.321H120.584Z" fill="#F0F0F0"/>
<path d="M113.655 64.0317C113.655 61.5072 113.157 59.0075 112.191 56.6752C111.225 54.3429 109.809 52.2237 108.024 50.4386C106.239 48.6536 104.12 47.2376 101.788 46.2715C99.4554 45.3055 96.9557 44.8082 94.4312 44.8082H76.2252C71.1268 44.8082 66.2372 46.8336 62.6321 50.4386C59.027 54.0437 57.0017 58.9333 57.0017 64.0317H113.655Z" fill="#FAFAFA"/>
<path d="M113.655 196.38V154.327H57.0019V196.38H113.655Z" fill="#F5F5F5"/>
<path d="M113.655 75.8885H88.6658V148.902H113.655V75.8885Z" fill="#F5F5F5"/>
<path d="M81.9907 75.8885H57.0017V148.902H81.9907V75.8885Z" fill="#F5F5F5"/>
<path d="M66.0647 112.066H55.8297C55.4088 112.065 55.0055 111.897 54.7079 111.6C54.4104 111.302 54.2427 110.899 54.2417 110.478C54.2431 110.057 54.4108 109.654 54.7083 109.357C55.0058 109.059 55.4089 108.892 55.8297 108.89H66.0647C66.4854 108.892 66.8885 109.059 67.186 109.357C67.4835 109.654 67.6513 110.057 67.6526 110.478C67.6516 110.899 67.484 111.302 67.1864 111.6C66.8888 111.897 66.4855 112.065 66.0647 112.066Z" fill="#E0E0E0"/>
<path d="M51.3418 207.321L51.3418 31.2944H50.073L50.073 207.321H51.3418Z" fill="#F0F0F0"/>
<path d="M179.093 108.714L266.084 108.714V27.1102L179.093 27.1102V108.714Z" fill="#E6E6E6"/>
<path d="M176.901 108.714L263.891 108.714V27.1102L176.901 27.1102V108.714Z" fill="#F5F5F5"/>
<path d="M171.822 113.438L266.084 113.438V108.714L171.822 108.714V113.438Z" fill="#E6E6E6"/>
<path d="M169.353 113.438L258.76 113.438V108.714L169.353 108.714V113.438Z" fill="#F5F5F5"/>
<path d="M259.955 104.47V31.3556L180.836 31.3556V104.47H259.955Z" fill="white"/>
<path d="M222.588 104.47V31.3556H218.202V104.47H222.588Z" fill="#F5F5F5"/>
<path d="M182.494 104.47V31.3556H180.836V104.47H182.494Z" fill="#E6E6E6"/>
<path d="M224.246 104.47V31.3556H222.588V104.47H224.246Z" fill="#E6E6E6"/>
<path d="M190.787 110.878C189.187 94.3017 188.073 67.403 188.938 58.4068C188.953 58.2522 189.001 58.1025 189.078 57.9678C189.156 57.833 189.261 57.7163 189.387 57.6252C189.554 57.5028 189.752 57.4298 189.959 57.4146C190.166 57.3995 190.372 57.4427 190.556 57.5394C190.739 57.6361 190.892 57.7823 190.996 57.9615C191.1 58.1407 191.152 58.3455 191.145 58.5527C190.993 63.0104 190.817 74.1521 191.767 93.3729C192.239 102.941 192.921 109.493 192.453 110.876L190.787 110.878Z" fill="#E6E6E6"/>
<path d="M184.823 72.6723C180.264 67.614 170.964 64.0174 161.483 64.0356C157.762 64.0434 172.808 69.9197 179.069 76.4109C184.074 81.8013 188.193 87.95 191.274 94.6287C190.065 84.7219 189.379 77.7279 184.823 72.6723Z" fill="#E6E6E6"/>
<path d="M193.853 74.212C197.631 68.944 206.368 64.8927 215.816 64.4342C219.525 64.2544 205.413 70.8655 200.147 77.6419C195.945 83.3057 192.752 89.6514 190.706 96.4003C190.43 86.4831 190.071 79.4813 193.853 74.212Z" fill="#E6E6E6"/>
<path d="M184.62 54.1978C180.763 49.9147 172.884 46.869 164.856 46.8846C161.705 46.8846 174.445 51.8687 179.743 57.3594C183.98 61.9237 187.469 67.1302 190.078 72.7855C189.059 64.4042 188.475 58.481 184.62 54.1978Z" fill="#E6E6E6"/>
<path d="M192.265 60.5327C195.469 56.071 202.864 52.6411 210.864 52.2529C214.004 52.1005 202.055 57.6981 197.595 63.4363C194.036 68.2347 191.331 73.611 189.6 79.3288C189.368 70.924 189.062 64.9917 192.265 60.5327Z" fill="#E6E6E6"/>
<path d="M191.43 128.953C189.027 128.953 186.714 128.033 184.966 126.383C183.218 124.732 182.167 122.476 182.029 120.076L181.198 105.665H201.663L200.832 120.076C200.694 122.476 199.643 124.732 197.895 126.383C196.147 128.033 193.834 128.953 191.43 128.953Z" fill="#E6E6E6"/>
<path d="M202.988 108.941H179.877L179.215 102.949H203.655L202.988 108.941Z" fill="#E6E6E6"/>
<path d="M161.5 241C230.812 241 287 237.642 287 233.5C287 229.358 230.812 226 161.5 226C92.1883 226 36 229.358 36 233.5C36 237.642 92.1883 241 161.5 241Z" fill="#F5F5F5"/>
<path d="M163.925 226.367L158.535 226.974L156.547 214.75L161.937 214.143L163.925 226.367Z" fill="#FFC3BD"/>
<path d="M188.058 227.545H182.675L181.335 215.08H186.718L188.058 227.545Z" fill="#FFC3BD"/>
<path d="M182.232 226.918H188.794C188.901 226.918 189.004 226.955 189.088 227.021C189.171 227.088 189.229 227.181 189.252 227.286L190.315 232.07C190.34 232.187 190.339 232.307 190.31 232.423C190.282 232.539 190.228 232.647 190.152 232.739C190.077 232.831 189.981 232.905 189.873 232.955C189.765 233.005 189.647 233.03 189.527 233.028C187.416 232.991 185.88 232.867 183.217 232.867C181.581 232.867 176.647 233.037 174.388 233.037C172.173 233.037 171.833 230.803 172.758 230.601C176.906 229.689 180.031 228.442 181.356 227.249C181.597 227.034 181.909 226.916 182.232 226.918Z" fill="#263238"/>
<path d="M158.446 226.051L164.287 225.389C164.393 225.376 164.5 225.401 164.591 225.458C164.681 225.514 164.749 225.6 164.784 225.702L166.38 230.335C166.42 230.447 166.434 230.567 166.421 230.685C166.408 230.804 166.368 230.918 166.304 231.018C166.24 231.119 166.154 231.203 166.053 231.266C165.951 231.328 165.837 231.366 165.718 231.377C163.608 231.58 160.549 231.802 157.902 232.103C154.806 232.455 154.29 233.283 150.637 233.198C148.423 233.146 147.868 230.899 148.797 230.723C153.028 229.901 153.846 229.262 157.208 226.622C157.559 226.32 157.988 226.122 158.446 226.051Z" fill="#263238"/>
<path d="M163.201 69.3803C161.393 70.8732 159.613 72.1706 157.772 73.4994C155.932 74.8281 154.052 76.0617 152.118 77.2589C150.183 78.456 148.198 79.6037 146.116 80.6458C143.988 81.7483 141.773 82.6728 139.492 83.41C138.889 83.6028 138.302 83.7618 137.624 83.9311C136.962 84.0747 136.292 84.1821 135.618 84.2529C134.405 84.3831 133.264 84.4418 132.127 84.4939C129.86 84.5981 127.637 84.5955 125.416 84.5798C120.973 84.5264 116.569 84.3128 112.145 83.922L112.079 79.8837C116.423 79.3249 120.787 78.8416 125.106 78.3557C127.264 78.1212 129.417 77.8581 131.521 77.5832C132.563 77.4412 133.605 77.2745 134.567 77.096C134.98 77.0231 135.389 76.927 135.791 76.8081C136.17 76.6779 136.635 76.5294 137.065 76.3561C138.911 75.6066 140.703 74.73 142.428 73.7325C144.214 72.7073 146.002 71.6066 147.758 70.4368C149.514 69.267 151.262 68.0555 152.994 66.8193C154.727 65.5831 156.458 64.2739 158.084 63.0416L163.201 69.3803Z" fill="#FFC3BD"/>
<path d="M168.462 64.7793C167.688 69.8675 156.975 77.651 156.975 77.651L149.289 68.1115C152.656 64.5184 156.226 61.1211 159.982 57.9364C163.44 55.1096 169.303 59.243 168.462 64.7793Z" fill="#FACC15"/>
<path d="M113.561 80.3097L110.505 78.1342L110.17 85.0071C110.632 85.0083 111.087 84.8964 111.496 84.6811C111.905 84.4658 112.255 84.1538 112.515 83.7722L113.561 80.3097Z" fill="#FFC3BD"/>
<path d="M107.745 76.1334L107.119 82.8695L110.173 85.0072L110.508 78.1343L107.745 76.1334Z" fill="#FFC3BD"/>
<path opacity="0.2" d="M156.549 214.754L157.573 221.055L162.965 220.448L161.941 214.147L156.549 214.754Z" fill="black"/>
<path opacity="0.2" d="M186.72 215.081H181.335L182.028 221.506H187.413L186.72 215.081Z" fill="black"/>
<path d="M186.797 58.0992C187.198 58.1891 187.577 58.3583 187.911 58.5968C188.246 58.8353 188.529 59.1383 188.745 59.488C188.961 59.8377 189.104 60.227 189.167 60.633C189.23 61.0391 189.211 61.4536 189.112 61.8522C187.944 66.7001 187.063 71.6127 186.475 76.5645C185.966 80.733 185.661 84.7153 185.471 88.3249C185.024 96.7858 185.21 103.235 184.957 105.421C180.749 105.129 164.887 104.026 156.239 103.422C153.32 80.5676 156.74 65.9829 158.662 60.0571C158.956 59.1337 159.506 58.3129 160.249 57.6903C160.992 57.0676 161.896 56.6686 162.856 56.5399C163.958 56.3953 165.277 56.2559 166.668 56.1739C167.155 56.1426 167.649 56.1257 168.152 56.1152C172.235 56.1636 176.311 56.4472 180.362 56.9646C181.13 57.0558 181.907 57.1691 182.662 57.2902C184.172 57.543 185.607 57.8335 186.797 58.0992Z" fill="#FACC15"/>
<path d="M180.113 43.1395C179.071 47.0136 177.797 54.1574 180.363 56.9712C173.706 61.4484 169.457 67.752 168.231 66.3829C167.589 65.6665 167.31 57.375 168.154 56.1192C172.608 55.3793 172.722 52.1213 172.172 49.0158L180.113 43.1395Z" fill="#FFC3BD"/>
<path d="M179.847 55.3649C179.847 55.3649 169 60.1652 167.562 70.8992C170.55 67.4393 177.151 63.6746 177.151 63.6746L174.239 62.8383C176.091 62.1356 178.008 61.6198 179.962 61.2986C179.639 59.8161 181.361 56.8591 181.361 56.8591L179.847 55.3649Z" fill="#FACC15"/>
<path d="M170.06 55.1917C170.06 55.1917 171.506 61.322 167.563 70.8992C166.786 67.5565 165.72 64.2875 164.377 61.1292L167.033 61.8522C167.033 61.8522 166.903 60.616 164.752 58.972C165.648 57.6702 166.766 56.5358 168.054 55.6202L170.06 55.1917Z" fill="#FACC15"/>
<path opacity="0.2" d="M176.876 45.5376L172.176 49.0131C172.315 49.7363 172.391 50.4704 172.401 51.2068C174.095 51.0765 176.518 49.4052 176.819 47.6662C176.966 46.9659 176.986 46.2447 176.876 45.5376Z" fill="black"/>
<path d="M166.329 31.9209C163.705 32.0342 162.256 36.5597 164.92 40.2866C167.584 44.0136 169.866 31.7685 166.329 31.9209Z" fill="#263238"/>
<path d="M179.274 35.9031C179.585 41.2362 180.039 44.3405 177.691 47.3796C174.161 51.9507 167.335 50.3119 165.437 45.1794C163.729 40.5602 163.507 32.6152 168.433 29.8861C169.517 29.2786 170.738 28.9582 171.981 28.9556C173.223 28.9529 174.446 29.2681 175.532 29.871C176.618 30.474 177.532 31.3447 178.187 32.4005C178.842 33.4563 179.216 34.662 179.274 35.9031Z" fill="#FFC3BD"/>
<path d="M180.057 40.0013C178.631 39.1653 177.386 38.054 176.393 36.732C175.401 35.4101 174.682 33.9039 174.277 32.3013C172.714 32.6712 164.923 36.2561 162.527 32.3013C160.131 28.3464 163.146 26.0263 167.628 28.461C165.646 24.962 167.448 23.2503 173.678 23.0992C179.907 22.9481 179.07 26.5591 179.07 26.5591C179.07 26.5591 183.785 24.5061 185.453 28.1223C187.384 32.2778 183.82 39.3734 180.057 40.0013Z" fill="#263238"/>
<path d="M178.004 25.6042C178.061 25.6042 180.363 26.1579 183.015 23.4887C182.54 25.7658 178.421 27.2821 178.421 27.2821L178.004 25.6042Z" fill="#263238"/>
<path d="M181.099 33.4059C178.615 32.5475 175.607 36.2275 176.718 40.6709C177.829 45.1143 184.446 34.5627 181.099 33.4059Z" fill="#263238"/>
<path d="M182.505 40.3387C182.277 41.6631 181.534 42.8435 180.439 43.6214C178.978 44.6401 177.663 43.4755 177.573 41.7899C177.497 40.2736 178.164 37.9157 179.867 37.5679C180.24 37.4981 180.625 37.5228 180.987 37.6397C181.349 37.7566 181.676 37.962 181.938 38.2373C182.2 38.5126 182.389 38.849 182.488 39.216C182.587 39.583 182.593 39.9689 182.505 40.3387Z" fill="#FFC3BD"/>
<path d="M164.334 164.066C165.628 148.322 175.116 104.739 175.116 104.739L156.235 103.422C156.235 103.422 148.955 146.684 148.397 163.103C147.816 180.175 154.683 218.116 154.683 218.116L163.737 217.086C163.737 217.086 163.035 179.875 164.334 164.066Z" fill="#FACC15"/>
<path opacity="0.5" d="M164.334 164.066C165.628 148.322 175.116 104.739 175.116 104.739L156.235 103.422C156.235 103.422 148.955 146.684 148.397 163.103C147.816 180.175 154.683 218.116 154.683 218.116L163.737 217.086C163.737 217.086 163.035 179.875 164.334 164.066Z" fill="white"/>
<path opacity="0.2" d="M168.003 119.498C164.197 124.365 164.129 141.457 165.601 154.085C167.004 144.975 169.215 133.406 171.152 123.763L168.003 119.498Z" fill="black"/>
<path d="M166.423 104.132C166.423 104.132 168.461 150.213 170.734 165.819C173.222 182.909 179.541 220.26 179.541 220.26H189.4C189.4 220.26 187.778 185.081 186.477 168.29C184.995 149.166 184.955 105.424 184.955 105.424L166.423 104.132Z" fill="#FACC15"/>
<path opacity="0.5" d="M166.423 104.132C166.423 104.132 168.461 150.213 170.734 165.819C173.222 182.909 179.541 220.26 179.541 220.26H189.4C189.4 220.26 187.778 185.081 186.477 168.29C184.995 149.166 184.955 105.424 184.955 105.424L166.423 104.132Z" fill="white"/>
<path d="M178.356 220.47H189.964V217.002L176.988 216.777L178.356 220.47Z" fill="#FACC15"/>
<path d="M154.288 219.136L165.079 217.913L164.688 214.426L152.603 215.61L154.288 219.136Z" fill="#FACC15"/>
<path d="M171.422 38.3482C171.474 38.7794 171.291 39.1558 171.005 39.1897C170.718 39.2236 170.452 38.9018 170.402 38.4706C170.351 38.0394 170.532 37.663 170.818 37.6291C171.105 37.5952 171.371 37.917 171.422 38.3482Z" fill="#263238"/>
<path d="M166.551 38.9331C166.603 39.3643 166.421 39.7407 166.134 39.7746C165.847 39.8085 165.582 39.4867 165.53 39.0555C165.478 38.6244 165.66 38.2479 165.946 38.214C166.233 38.1802 166.499 38.5071 166.551 38.9331Z" fill="#263238"/>
<path d="M168.125 38.9618C167.769 40.341 167.225 41.6647 166.509 42.8958C166.829 43.0709 167.183 43.1741 167.546 43.1982C167.91 43.2223 168.275 43.1667 168.614 43.0352L168.125 38.9618Z" fill="#ED847E"/>
<path d="M172.746 36.5909C172.701 36.6046 172.653 36.6056 172.607 36.5939C172.561 36.5822 172.519 36.5582 172.486 36.5245C172.27 36.2876 172.002 36.105 171.702 35.9918C171.403 35.8786 171.081 35.8379 170.762 35.8731C170.696 35.8843 170.628 35.8694 170.572 35.8316C170.517 35.7937 170.478 35.7358 170.464 35.6699C170.457 35.6369 170.457 35.6029 170.464 35.5699C170.47 35.5369 170.484 35.5056 170.503 35.4778C170.522 35.4499 170.546 35.4262 170.574 35.408C170.603 35.3897 170.634 35.3774 170.667 35.3716C171.069 35.3196 171.478 35.3648 171.858 35.5035C172.239 35.6423 172.58 35.8705 172.855 36.1688C172.901 36.2174 172.927 36.282 172.927 36.3493C172.927 36.4165 172.901 36.4812 172.855 36.5297C172.824 36.5588 172.787 36.5799 172.746 36.5909Z" fill="#263238"/>
<path d="M170.874 44.7547C171.489 44.6254 172.064 44.35 172.55 43.9519C173.036 43.5538 173.418 43.0445 173.666 42.4672C173.678 42.4327 173.676 42.3947 173.66 42.3618C173.644 42.3288 173.616 42.3035 173.581 42.2914C173.547 42.2793 173.509 42.2814 173.476 42.2973C173.443 42.3132 173.418 42.3415 173.406 42.376C173.168 42.9071 172.81 43.375 172.359 43.742C171.907 44.109 171.376 44.3649 170.808 44.489C170.791 44.493 170.774 44.5004 170.759 44.5108C170.745 44.5213 170.732 44.5345 170.723 44.5497C170.713 44.565 170.707 44.5819 170.704 44.5997C170.701 44.6174 170.701 44.6356 170.705 44.6531C170.709 44.6706 170.717 44.6872 170.727 44.7019C170.737 44.7165 170.751 44.729 170.766 44.7386C170.781 44.7481 170.798 44.7546 170.816 44.7576C170.834 44.7606 170.852 44.76 170.869 44.756L170.874 44.7547Z" fill="#263238"/>
<path d="M164.26 37.508C164.209 37.525 164.153 37.525 164.102 37.508C164.039 37.4847 163.987 37.4379 163.958 37.3775C163.929 37.317 163.924 37.2476 163.944 37.1836C164.067 36.7972 164.28 36.446 164.567 36.1598C164.854 35.8736 165.206 35.6608 165.592 35.5396C165.658 35.5248 165.726 35.5358 165.784 35.5703C165.841 35.6047 165.883 35.66 165.901 35.7246C165.916 35.7898 165.905 35.8582 165.871 35.9157C165.837 35.9732 165.782 36.0153 165.717 36.0334C165.413 36.1347 165.138 36.3069 164.913 36.5356C164.689 36.7644 164.522 37.0432 164.426 37.349C164.413 37.3865 164.391 37.4204 164.362 37.4479C164.333 37.4755 164.298 37.496 164.26 37.508Z" fill="#263238"/>
<path d="M180.46 227.859C180.091 227.888 179.724 227.791 179.418 227.584C179.322 227.502 179.248 227.397 179.203 227.28C179.158 227.162 179.142 227.035 179.157 226.91C179.157 226.836 179.177 226.763 179.216 226.699C179.254 226.636 179.31 226.584 179.376 226.55C179.974 226.242 181.708 227.31 181.903 227.433C181.924 227.446 181.941 227.466 181.952 227.489C181.962 227.512 181.966 227.538 181.962 227.563C181.957 227.588 181.946 227.611 181.929 227.629C181.912 227.648 181.89 227.661 181.865 227.667C181.405 227.783 180.934 227.847 180.46 227.859ZM179.66 226.745C179.603 226.742 179.546 226.753 179.494 226.776C179.468 226.791 179.446 226.813 179.432 226.839C179.418 226.866 179.411 226.896 179.414 226.926C179.402 227.011 179.412 227.098 179.442 227.179C179.472 227.26 179.522 227.332 179.587 227.388C180.188 227.663 180.872 227.697 181.498 227.485C180.937 227.121 180.31 226.87 179.653 226.745H179.66Z" fill="#FACC15"/>
<path d="M181.831 227.67C181.81 227.67 181.789 227.664 181.77 227.654C181.214 227.352 180.137 226.172 180.25 225.57C180.269 225.476 180.319 225.391 180.393 225.33C180.467 225.269 180.559 225.236 180.655 225.235C180.752 225.223 180.85 225.232 180.944 225.26C181.037 225.288 181.124 225.336 181.198 225.399C181.824 225.911 181.953 227.464 181.957 227.529C181.958 227.552 181.954 227.575 181.944 227.595C181.934 227.616 181.918 227.634 181.899 227.646C181.879 227.66 181.856 227.669 181.831 227.67ZM180.745 225.488H180.686C180.521 225.509 180.507 225.584 180.5 225.618C180.432 225.972 181.119 226.864 181.673 227.284C181.636 226.669 181.414 226.078 181.037 225.591C180.955 225.523 180.851 225.487 180.745 225.488Z" fill="#FACC15"/>
<path d="M158.008 226.847L157.987 226.856C157.144 227.125 155.636 227.507 154.991 227.056C154.896 226.99 154.818 226.903 154.765 226.8C154.711 226.697 154.683 226.583 154.684 226.467C154.679 226.398 154.692 226.328 154.721 226.265C154.751 226.201 154.797 226.147 154.854 226.107C155.46 225.681 157.736 226.518 157.994 226.616C158.016 226.626 158.035 226.641 158.049 226.661C158.063 226.68 158.071 226.704 158.072 226.728C158.074 226.752 158.068 226.775 158.057 226.797C158.046 226.818 158.029 226.836 158.008 226.848V226.847ZM155.034 226.294L155.004 226.312C154.981 226.328 154.962 226.35 154.951 226.375C154.939 226.401 154.935 226.429 154.939 226.457C154.937 226.533 154.955 226.609 154.989 226.677C155.024 226.745 155.074 226.804 155.137 226.848C155.929 227.095 156.784 227.049 157.544 226.718C156.756 226.368 155.892 226.222 155.033 226.294H155.034Z" fill="#FACC15"/>
<path d="M158.008 226.847C157.977 226.862 157.942 226.865 157.909 226.854C157.232 226.638 155.825 225.626 155.851 225.011C155.857 224.866 155.94 224.678 156.283 224.603C156.408 224.576 156.536 224.574 156.661 224.597C156.786 224.621 156.905 224.67 157.01 224.741C157.563 225.269 157.934 225.957 158.073 226.708C158.078 226.73 158.076 226.753 158.07 226.774C158.063 226.795 158.051 226.814 158.034 226.83C158.026 226.836 158.017 226.842 158.008 226.847ZM156.196 224.906C156.109 224.952 156.106 225.007 156.105 225.028C156.087 225.398 157.059 226.208 157.763 226.529C157.633 225.928 157.322 225.383 156.871 224.966C156.794 224.912 156.707 224.876 156.615 224.858C156.523 224.84 156.428 224.842 156.337 224.863C156.288 224.87 156.241 224.885 156.196 224.906Z" fill="#FACC15"/>
<path d="M191.338 65.8632C191.201 67.9657 190.954 69.9236 190.697 71.9453C190.441 73.9671 190.095 75.9484 189.716 77.948C188.966 82.0321 187.859 86.0424 186.406 89.9325L185.767 91.4397L185.605 91.8162L185.565 91.91L185.498 92.0533L185.311 92.4245C185.063 92.8757 184.765 93.2977 184.424 93.6829C183.862 94.3149 183.205 94.8555 182.477 95.2852C181.888 95.6361 181.269 95.9364 180.629 96.1827C178.495 96.9524 176.264 97.4181 174.001 97.5662C169.892 97.8731 165.761 97.7189 161.686 97.1063L161.833 93.0681L164.68 92.7463C165.635 92.633 166.585 92.4858 167.529 92.3555C169.414 92.078 171.28 91.768 173.058 91.3551C174.703 91.0202 176.301 90.4902 177.82 89.7762C178.23 89.6041 178.589 89.3301 178.862 88.9803C178.879 88.8878 178.674 89.2929 178.916 88.6455L179.342 87.4002C180.385 83.83 181.183 80.1927 181.731 76.5138C182.037 74.6406 182.299 72.7504 182.552 70.855C182.804 68.9596 183.013 67.0252 183.212 65.2079L191.338 65.8632Z" fill="#FFC3BD"/>
<path d="M191.807 61.9604C194.442 66.3804 192.198 80.272 192.198 80.272L178.39 77.7201C178.39 77.7201 177.642 69.7738 180.271 63.6591C183.125 57.0038 188.614 56.6052 191.807 61.9604Z" fill="#FACC15"/>
<path d="M157.966 105.562L150.639 71.4789C150.287 70.0235 149.472 68.7218 148.316 67.7702C147.16 66.8186 145.726 66.2686 144.23 66.2031H116.153C117.649 66.2683 119.084 66.8182 120.24 67.7698C121.396 68.7215 122.212 70.0233 122.564 71.4789L129.891 105.562C130.243 107.017 131.058 108.319 132.214 109.271C133.37 110.222 134.804 110.772 136.3 110.838H164.375C162.88 110.772 161.445 110.222 160.289 109.271C159.133 108.319 158.318 107.017 157.966 105.562V105.562Z" fill="#263238"/>
<path opacity="0.7" d="M157.966 105.562L150.639 71.4789C150.287 70.0235 149.472 68.7218 148.316 67.7702C147.16 66.8186 145.726 66.2686 144.23 66.2031H116.153C117.649 66.2683 119.084 66.8182 120.24 67.7698C121.396 68.7215 122.212 70.0233 122.564 71.4789L129.891 105.562C130.243 107.017 131.058 108.319 132.214 109.271C133.37 110.222 134.804 110.772 136.3 110.838H164.375C162.88 110.772 161.445 110.222 160.289 109.271C159.133 108.319 158.318 107.017 157.966 105.562V105.562Z" fill="#FACC15"/>
<path d="M116.153 66.2031H144.228C142.791 66.23 141.413 66.781 140.353 67.7526C139.293 68.7241 138.625 70.0492 138.473 71.4789L131.19 150.681C131.038 152.111 130.37 153.436 129.31 154.407C128.25 155.379 126.872 155.93 125.435 155.957H107.911C107.236 155.969 106.566 155.837 105.946 155.57C105.327 155.303 104.771 154.906 104.317 154.406C103.863 153.907 103.52 153.316 103.313 152.674C103.106 152.031 103.038 151.352 103.115 150.681L110.399 71.4789C110.551 70.0494 111.219 68.7245 112.279 67.753C113.338 66.7815 114.716 66.2304 116.153 66.2031Z" fill="#FACC15"/>
<path d="M120.639 150.68C120.562 151.351 120.63 152.03 120.837 152.672C121.044 153.315 121.386 153.906 121.84 154.405C122.295 154.905 122.85 155.301 123.47 155.569C124.09 155.836 124.76 155.968 125.435 155.956H97.3599C96.6848 155.968 96.0148 155.837 95.3948 155.569C94.7748 155.302 94.2191 154.905 93.7649 154.406C93.3107 153.906 92.9686 153.315 92.7614 152.673C92.5541 152.03 92.4867 151.351 92.5635 150.68H120.639Z" fill="#263238"/>
<path opacity="0.7" d="M120.639 150.68C120.562 151.351 120.63 152.03 120.837 152.672C121.044 153.315 121.386 153.906 121.84 154.405C122.295 154.905 122.85 155.301 123.47 155.569C124.09 155.836 124.76 155.968 125.435 155.956H97.3599C96.6848 155.968 96.0148 155.837 95.3948 155.569C94.7748 155.302 94.2191 154.905 93.7649 154.406C93.3107 153.906 92.9686 153.315 92.7614 152.673C92.5541 152.03 92.4867 151.351 92.5635 150.68H120.639Z" fill="#FACC15"/>
<g opacity="0.5">
<path opacity="0.5" d="M133.608 75.0769H114.61C114.463 75.0789 114.317 75.0497 114.183 74.9912C114.048 74.9327 113.928 74.8462 113.829 74.7375C113.731 74.6289 113.656 74.5005 113.611 74.3609C113.566 74.2213 113.551 74.0737 113.567 73.9279V73.9279C113.601 73.6169 113.747 73.3288 113.978 73.1174C114.208 72.906 114.508 72.7857 114.821 72.779H133.816C133.963 72.777 134.108 72.8062 134.243 72.8647C134.377 72.9232 134.498 73.0096 134.596 73.1183C134.695 73.227 134.769 73.3554 134.814 73.4949C134.86 73.6345 134.874 73.7821 134.858 73.9279V73.9279C134.824 74.2385 134.679 74.5263 134.449 74.7376C134.219 74.949 133.92 75.0695 133.608 75.0769V75.0769Z" fill="white"/>
<path opacity="0.5" d="M133.042 81.2919H114.044C113.898 81.2939 113.752 81.2647 113.618 81.2062C113.483 81.1477 113.363 81.0612 113.264 80.9526C113.165 80.8439 113.091 80.7155 113.046 80.5759C113.001 80.4363 112.986 80.2887 113.002 80.1429C113.036 79.8319 113.182 79.5438 113.412 79.3324C113.643 79.121 113.943 79.0007 114.255 78.994H133.253C133.4 78.992 133.546 79.0212 133.68 79.0797C133.815 79.1382 133.935 79.2247 134.034 79.3333C134.132 79.442 134.207 79.5704 134.252 79.7099C134.297 79.8495 134.312 79.9971 134.296 80.1429V80.1429C134.262 80.4541 134.116 80.7423 133.886 80.9538C133.655 81.1653 133.355 81.2855 133.042 81.2919V81.2919Z" fill="white"/>
<path opacity="0.5" d="M127.82 87.5069H113.479C113.332 87.5089 113.187 87.4797 113.052 87.4212C112.918 87.3627 112.797 87.2763 112.699 87.1676C112.6 87.0589 112.526 86.9305 112.481 86.7909C112.435 86.6514 112.421 86.5038 112.437 86.358V86.358C112.471 86.0469 112.616 85.7588 112.847 85.5474C113.078 85.336 113.377 85.2157 113.69 85.209H128.031C128.178 85.207 128.323 85.2362 128.458 85.2947C128.592 85.3532 128.713 85.4397 128.811 85.5483C128.91 85.657 128.984 85.7854 129.029 85.925C129.074 86.0646 129.089 86.2122 129.073 86.358V86.358C129.039 86.669 128.894 86.9571 128.663 87.1685C128.432 87.3799 128.133 87.5002 127.82 87.5069V87.5069Z" fill="white"/>
<path opacity="0.5" d="M117.778 93.7207H112.915C112.768 93.7227 112.623 93.6935 112.488 93.635C112.354 93.5765 112.233 93.49 112.134 93.3813C112.036 93.2727 111.962 93.1443 111.916 93.0047C111.871 92.8651 111.856 92.7175 111.873 92.5717V92.5717C111.906 92.2608 112.052 91.9727 112.282 91.7613C112.512 91.5499 112.812 91.4295 113.124 91.4228H117.989C118.135 91.4208 118.281 91.45 118.415 91.5085C118.55 91.567 118.67 91.6534 118.769 91.7621C118.867 91.8708 118.942 91.9992 118.987 92.1387C119.032 92.2783 119.047 92.4259 119.031 92.5717V92.5717C118.997 92.8827 118.851 93.1708 118.621 93.3823C118.39 93.5937 118.09 93.714 117.778 93.7207V93.7207Z" fill="white"/>
<path opacity="0.5" d="M131.346 99.9357H112.343C112.196 99.9377 112.051 99.9085 111.916 99.85C111.782 99.7915 111.661 99.705 111.563 99.5964C111.464 99.4877 111.39 99.3593 111.345 99.2197C111.299 99.0801 111.285 98.9325 111.301 98.7867V98.7867C111.335 98.4757 111.48 98.1876 111.711 97.9762C111.942 97.7648 112.241 97.6445 112.554 97.6378H131.552C131.699 97.6358 131.844 97.665 131.979 97.7235C132.113 97.782 132.234 97.8685 132.332 97.9771C132.431 98.0858 132.505 98.2142 132.55 98.3538C132.596 98.4934 132.61 98.6409 132.594 98.7867V98.7867C132.561 99.0969 132.416 99.3843 132.186 99.5956C131.956 99.8069 131.658 99.9277 131.346 99.9357V99.9357Z" fill="white"/>
<path opacity="0.5" d="M123.3 106.151H111.784C111.637 106.153 111.492 106.123 111.357 106.065C111.223 106.006 111.102 105.92 111.004 105.811C110.905 105.703 110.831 105.574 110.786 105.435C110.741 105.295 110.726 105.148 110.742 105.002V105.002C110.775 104.691 110.921 104.403 111.151 104.191C111.382 103.98 111.681 103.86 111.994 103.853H123.509C123.656 103.851 123.802 103.88 123.936 103.938C124.071 103.997 124.191 104.083 124.29 104.192C124.388 104.301 124.463 104.429 124.508 104.569C124.553 104.708 124.568 104.856 124.552 105.002V105.002C124.518 105.313 124.372 105.6 124.142 105.812C123.912 106.023 123.612 106.144 123.3 106.151V106.151Z" fill="white"/>
<path opacity="0.5" d="M130.217 112.364H111.219C111.072 112.366 110.927 112.337 110.792 112.279C110.657 112.22 110.537 112.134 110.438 112.025C110.34 111.916 110.265 111.788 110.22 111.648C110.175 111.509 110.16 111.361 110.177 111.215V111.215C110.21 110.904 110.356 110.616 110.587 110.405C110.817 110.193 111.117 110.073 111.43 110.067H130.429C130.576 110.064 130.721 110.094 130.856 110.152C130.99 110.211 131.111 110.297 131.209 110.406C131.308 110.514 131.382 110.643 131.427 110.782C131.473 110.922 131.487 111.07 131.471 111.215V111.215C131.437 111.527 131.291 111.815 131.061 112.026C130.83 112.238 130.53 112.358 130.217 112.364V112.364Z" fill="white"/>
<path opacity="0.5" d="M124.995 118.579H110.654C110.507 118.581 110.361 118.552 110.227 118.494C110.092 118.435 109.972 118.349 109.873 118.24C109.775 118.131 109.7 118.003 109.655 117.863C109.61 117.724 109.595 117.576 109.611 117.43V117.43C109.645 117.119 109.791 116.831 110.022 116.62C110.252 116.409 110.552 116.288 110.865 116.282H125.206C125.352 116.28 125.498 116.309 125.632 116.367C125.767 116.426 125.887 116.512 125.986 116.621C126.084 116.73 126.159 116.858 126.204 116.998C126.249 117.137 126.264 117.285 126.248 117.43V117.43C126.214 117.742 126.068 118.03 125.838 118.241C125.607 118.452 125.307 118.573 124.995 118.579V118.579Z" fill="white"/>
<path opacity="0.5" d="M114.952 124.793H110.085C109.939 124.795 109.793 124.766 109.659 124.707C109.524 124.649 109.404 124.562 109.305 124.454C109.207 124.345 109.132 124.217 109.087 124.077C109.042 123.938 109.027 123.79 109.043 123.644V123.644C109.077 123.333 109.223 123.045 109.453 122.834C109.684 122.622 109.984 122.502 110.296 122.495H115.166C115.312 122.493 115.458 122.522 115.592 122.581C115.727 122.639 115.848 122.726 115.946 122.835C116.045 122.943 116.119 123.072 116.164 123.211C116.209 123.351 116.224 123.498 116.208 123.644C116.174 123.956 116.028 124.244 115.797 124.456C115.566 124.667 115.265 124.787 114.952 124.793V124.793Z" fill="white"/>
<path opacity="0.5" d="M128.521 131.009H109.523C109.376 131.012 109.231 130.982 109.096 130.924C108.961 130.865 108.841 130.779 108.742 130.67C108.644 130.561 108.569 130.433 108.524 130.294C108.479 130.154 108.464 130.006 108.481 129.861V129.861C108.514 129.55 108.66 129.261 108.891 129.05C109.121 128.839 109.421 128.718 109.734 128.712H128.732C128.878 128.71 129.024 128.739 129.158 128.797C129.293 128.856 129.414 128.942 129.512 129.051C129.611 129.16 129.685 129.288 129.73 129.428C129.775 129.567 129.79 129.715 129.774 129.861V129.861C129.74 130.172 129.594 130.46 129.364 130.671C129.133 130.882 128.833 131.003 128.521 131.009V131.009Z" fill="white"/>
<path opacity="0.5" d="M120.474 137.223H108.959C108.812 137.225 108.667 137.196 108.532 137.138C108.397 137.079 108.277 136.993 108.178 136.884C108.08 136.775 108.005 136.647 107.96 136.507C107.915 136.368 107.9 136.22 107.917 136.074V136.074C107.95 135.763 108.096 135.475 108.326 135.263C108.557 135.052 108.857 134.932 109.17 134.925H120.684C120.831 134.923 120.976 134.953 121.111 135.011C121.245 135.07 121.366 135.156 121.464 135.265C121.563 135.373 121.637 135.502 121.682 135.641C121.727 135.781 121.742 135.929 121.726 136.074V136.074C121.692 136.385 121.547 136.673 121.316 136.884C121.086 137.096 120.787 137.216 120.474 137.223V137.223Z" fill="white"/>
<path opacity="0.5" d="M127.39 143.438H108.392C108.245 143.44 108.1 143.411 107.965 143.353C107.831 143.294 107.71 143.208 107.612 143.099C107.513 142.99 107.439 142.862 107.394 142.722C107.349 142.583 107.334 142.435 107.35 142.289V142.289C107.384 141.978 107.529 141.69 107.76 141.479C107.991 141.267 108.29 141.147 108.603 141.14H127.599C127.745 141.138 127.891 141.168 128.025 141.226C128.16 141.285 128.28 141.371 128.379 141.48C128.477 141.588 128.552 141.717 128.597 141.856C128.642 141.996 128.657 142.143 128.641 142.289V142.289C128.607 142.6 128.462 142.888 128.231 143.099C128.001 143.31 127.702 143.431 127.39 143.438Z" fill="white"/>
</g>
<path d="M163.488 93.5084L159.364 89.9247L157.431 96.5214C157.431 96.5214 161.62 98.7933 163.071 96.7077L163.488 93.5084Z" fill="#FFC3BD"/>
<path d="M154.871 89.6668L153.53 95.1953L157.427 96.524L159.36 89.926L154.871 89.6668Z" fill="#FFC3BD"/>
</svg>
