<svg width="302" height="347" viewBox="0 0 302 347" fill="none" xmlns="http://www.w3.org/2000/svg">
<path d="M151 327.107C234.395 327.107 302 259.502 302 176.107C302 92.7117 234.395 25.1067 151 25.1067C67.605 25.1067 0 92.7117 0 176.107C0 259.502 67.605 327.107 151 327.107Z" fill="url(#paint0_linear_65_63)"/>
<g filter="url(#filter0_d_65_63)">
<path d="M237.573 111.68H64.4267C58.867 111.68 54.36 116.187 54.36 121.747V333.147C54.36 338.706 58.867 343.213 64.4267 343.213H237.573C243.133 343.213 247.64 338.706 247.64 333.147V121.747C247.64 116.187 243.133 111.68 237.573 111.68Z" fill="white"/>
</g>
<path d="M130.867 141.88H78.52C75.1842 141.88 72.48 144.584 72.48 147.92C72.48 151.256 75.1842 153.96 78.52 153.96H130.867C134.202 153.96 136.907 151.256 136.907 147.92C136.907 144.584 134.202 141.88 130.867 141.88Z" fill="#FACC15"/>
<path d="M167.107 168.053H78.52C75.1842 168.053 72.48 170.758 72.48 174.093C72.48 177.429 75.1842 180.133 78.52 180.133H167.107C170.442 180.133 173.147 177.429 173.147 174.093C173.147 170.758 170.442 168.053 167.107 168.053Z" fill="#E0E3E9"/>
<path d="M130.867 196.24H78.52C75.1842 196.24 72.48 198.944 72.48 202.28C72.48 205.616 75.1842 208.32 78.52 208.32H130.867C134.202 208.32 136.907 205.616 136.907 202.28C136.907 198.944 134.202 196.24 130.867 196.24Z" fill="#FACC15"/>
<path d="M167.107 222.413H78.52C75.1842 222.413 72.48 225.118 72.48 228.453C72.48 231.789 75.1842 234.493 78.52 234.493H167.107C170.442 234.493 173.147 231.789 173.147 228.453C173.147 225.118 170.442 222.413 167.107 222.413Z" fill="#E0E3E9"/>
<path d="M130.867 250.6H78.52C75.1842 250.6 72.48 253.304 72.48 256.64C72.48 259.976 75.1842 262.68 78.52 262.68H130.867C134.202 262.68 136.907 259.976 136.907 256.64C136.907 253.304 134.202 250.6 130.867 250.6Z" fill="#FACC15"/>
<path d="M167.107 276.773H78.52C75.1842 276.773 72.48 279.478 72.48 282.813C72.48 286.149 75.1842 288.853 78.52 288.853H167.107C170.442 288.853 173.147 286.149 173.147 282.813C173.147 279.478 170.442 276.773 167.107 276.773Z" fill="#E0E3E9"/>
<g filter="url(#filter1_d_65_63)">
<path d="M237.573 9H64.4267C58.867 9 54.36 13.507 54.36 19.0667V79.4667C54.36 85.0263 58.867 89.5333 64.4267 89.5333H237.573C243.133 89.5333 247.64 85.0263 247.64 79.4667V19.0667C247.64 13.507 243.133 9 237.573 9Z" fill="#758192"/>
</g>
<path d="M130.867 31.1467H78.52C75.1842 31.1467 72.48 33.8509 72.48 37.1867C72.48 40.5225 75.1842 43.2267 78.52 43.2267H130.867C134.202 43.2267 136.907 40.5225 136.907 37.1867C136.907 33.8509 134.202 31.1467 130.867 31.1467Z" fill="#FACC15"/>
<path d="M167.107 57.32H78.52C75.1842 57.32 72.48 60.0242 72.48 63.36C72.48 66.6958 75.1842 69.4 78.52 69.4H167.107C170.442 69.4 173.147 66.6958 173.147 63.36C173.147 60.0242 170.442 57.32 167.107 57.32Z" fill="white"/>
<defs>
<filter id="filter0_d_65_63" x="48.36" y="102.68" width="205.28" height="243.533" filterUnits="userSpaceOnUse" color-interpolation-filters="sRGB">
<feFlood flood-opacity="0" result="BackgroundImageFix"/>
<feColorMatrix in="SourceAlpha" type="matrix" values="0 0 0 0 0 0 0 0 0 0 0 0 0 0 0 0 0 0 127 0" result="hardAlpha"/>
<feOffset dy="-3"/>
<feGaussianBlur stdDeviation="3"/>
<feColorMatrix type="matrix" values="0 0 0 0 0.788235 0 0 0 0 0.803922 0 0 0 0 0.85098 0 0 0 0.349 0"/>
<feBlend mode="normal" in2="BackgroundImageFix" result="effect1_dropShadow_65_63"/>
<feBlend mode="normal" in="SourceGraphic" in2="effect1_dropShadow_65_63" result="shape"/>
</filter>
<filter id="filter1_d_65_63" x="48.36" y="0" width="205.28" height="92.5333" filterUnits="userSpaceOnUse" color-interpolation-filters="sRGB">
<feFlood flood-opacity="0" result="BackgroundImageFix"/>
<feColorMatrix in="SourceAlpha" type="matrix" values="0 0 0 0 0 0 0 0 0 0 0 0 0 0 0 0 0 0 127 0" result="hardAlpha"/>
<feOffset dy="-3"/>
<feGaussianBlur stdDeviation="3"/>
<feColorMatrix type="matrix" values="0 0 0 0 0.788235 0 0 0 0 0.803922 0 0 0 0 0.85098 0 0 0 0.349 0"/>
<feBlend mode="normal" in2="BackgroundImageFix" result="effect1_dropShadow_65_63"/>
<feBlend mode="normal" in="SourceGraphic" in2="effect1_dropShadow_65_63" result="shape"/>
</filter>
<linearGradient id="paint0_linear_65_63" x1="151" y1="25.1067" x2="151" y2="327.107" gradientUnits="userSpaceOnUse">
<stop stop-color="#E3ECFA"/>
<stop offset="1" stop-color="#DAE7FF"/>
</linearGradient>
</defs>
</svg>
